/* XPM */
static char *_687352237724[] = {
/* columns rows colors chars-per-pixel */
"64 64 3 1 ",
"  c #E4E4E4",
". c gray90",
"X c None",
/* pixels */
"XX  XX  XXXXXX  XX ............................ XX .............",
"XX  XX  XXXXXX  XX  .                  .  .  .  XX  .        . .",
"XX  XXXXXXXXXX  XX .XXXXXXXXXXXXXXXXXXXX..XXXX. XX .XXXXXXXXXX..",
"XX  XXXXXXXXXX  XX  XXXXXXXXXXXXXXXXXXXX  XXXX  XX  XXXXXXXXXX .",
"XX  XXXX  XXXX  XX  XXXXXXXXXXXXXXXXXXXXXXXXXX  XX  XXXXXXXXXX .",
"XX .XXXX  XXXX  XX  XXXXXXXXXXXXXXXXXXXXXXXXXX  XX  XXXXXXXXXX .",
"XX  . XXXXXXXX  XX  XXXXXXXXXXXXXXXXXXXXXXXXXX  XX  XXXXXX  XX .",
"XX  . XXXXXXXX  XX  XXXXXXXXXXXXXXXXXXXXXXXXXX  XX  XXXXXX  XX .",
"XX .XXXXXXXXXX  XX  XXXX  XXXXXXXXXXXXXXXXXXXX  XX  XXXXXXXXXX .",
"XX  XXXXXXXXXX  XX  XXXX  XXXXXXXXXXXXXXXXXXXX  XX  XXXXXXXXXX .",
"XX  XXXXXXXXXX  XX  XXXXXXXXXXXXXXXXXXXXXXXXXX  XX  XXXXXXXXXX .",
"XX .XXXXXXXXXX. XX .XXXXXXXXXXXXXXXXXXXXXXXXXX. XX  XXXXXXXXXX .",
"XX  .        .  XX  .                        .  XX  XXXXXXXXXX .",
"XX              XX                              XX  XXXXXXXXXX .",
"XXXXXXXXXXXXXXXXXXXXXXXXXXXXXXXXXXXXXXXXXXXXXXXXXX  XXXXXXXXXX .",
"XXXXXXXXXXXXXXXXXXXXXXXXXXXXXXXXXXXXXXXXXXXXXXXXXX  XXXXXXXXXX .",
"XX                              XX              XX  XX  XXXXXX .",
"XX  .                  .  .  .  XX  .        .  XX  XX  XXXXXX .",
"XX .XXXXXXXXXXXXXXXXXXXX..XXXX. XX .XXXXXXXXXX. XX  XXXXXXXXXX .",
"XX  XXXXXXXXXXXXXXXXXXXX  XXXX  XX  XXXXXXXXXX  XX  XXXXXXXXXX .",
"XX  XXXXXXXXXXXXXXXXXXXXXXXXXX  XX  XXXXXXXXXX  XX  XXXXXXXXXX .",
"XX  XXXXXXXXXXXXXXXXXXXXXXXXXX  XX  XXXXXXXXXX  XX .XXXXXXXXXX .",
"XX  XXXXXXXX  XXXXXXXXXXXXXXXX  XX  XXXXXX  XX  XX  . XXXXXXXX .",
"XX  XXXXXXXX  XXXXXXXXXXXXXXXX  XX  XXXXXX  XX  XX  . XXXXXXXX .",
"XX  XXXXXXXXXXXXXXXXXXXXXXXXXX  XX  XXXXXXXXXX  XX .XXXXXXXXXX .",
"XX  XXXXXXXXXXXXXXXXXXXXXXXXXX  XX  XXXXXXXXXX  XX  XXXXXXXXXX .",
"XX  XXXXXXXXXXXXXXXXXXXXXXXXXX  XX  XXXXXXXXXX  XX  XXXXXXXXXX .",
"XX .XXXXXXXXXXXXXXXXXXXXXXXXXX. XX  XXXXXXXXXX  XX .XXXXXXXXXX..",
"XX  .                        .  XX  XXXXXXXXXX  XX  .        . .",
"XX                              XX  XXXXXXXXXX  XX              ",
"XXXXXXXXXXXXXXXXXXXXXXXXXXXXXXXXXX  XXXXXXXXXX  XXXXXXXXXXXXXXXX",
"XXXXXXXXXXXXXXXXXXXXXXXXXXXXXXXXXX  XXXXXXXXXX  XXXXXXXXXXXXXXXX",
"                XX              XX  XXXXXXXXXX  XX              ",
"       .  .  .  XX  .        .  XX  XXXXXXXXXX  XX  .        . .",
"XXXXXXXX..XXXX. XX .XXXXXXXXXX. XX  XXXXXXXXXX  XX .XXXXXXXXXX..",
"XXXXXXXX  XXXX  XX  XXXXXXXXXX  XX  XXXXXXXXXX  XX  XXXXXXXXXX  ",
"XX  XXXXXXXXXX  XX  XX  XXXXXX  XX  XXXXXXXXXX  XX  XXXXXXXXXXXX",
"XX  XXXXXXXXXX  XX  XX  XXXXXX  XX .XXXXXXXXXX  XX  XXXXXXXXXXXX",
"XXXXXXXXXXXXXX  XX  XXXXXX  XX  XX  . XXXXXXXX  XX  XXXXXXXX  XX",
"XXXXXXXXXXXXXX  XX  XXXXXX  XX  XX  . XXXXXXXX  XX  XXXXXXXX  XX",
"XXXXXXXXXXXXXX  XX  XXXXXXXXXX  XX .XXXXXXXXXX  XX  XXXX  XXXXXX",
"XXXXXXXXXXXXXX  XX  XXXXXXXXXX  XX  XXXXXXXXXX  XX  XXXX  XXXXXX",
"XXXXXXXXXXXXXX  XX  XXXXXXXXXX  XX  XXXXXXXXXX  XX  XXXXXXXXXXXX",
"XXXXXXXXXXXXXX. XX  XXXXXXXXXX  XX .XXXXXXXXXX. XX .XXXXXXXXXXXX",
"             .  XX  XXXX  XXXX  XX  .        .  XX  .           ",
"                XX  XXXX  XXXX  XX              XX              ",
"XXXXXXXXXXXXXXXXXX  XXXXXXXXXX  XXXXXXXXXXXXXXXXXXXXXXXXXXXXXXXX",
"XXXXXXXXXXXXXXXXXX  XXXXXXXXXX  XXXXXXXXXXXXXXXXXXXXXXXXXXXXXXXX",
"XX              XX  XX  XXXXXX  XX                              ",
"XX  .        .  XX  XX  XXXXXX  XX  .                  .  .  . .",
"XX .XXXXXXXXXX. XX  XXXXXXXXXX  XX .XXXXXXXXXXXXXXXXXXXX..XXXX..",
"XX  XXXXXXXXXX  XX  XXXXXXXXXX  XX  XXXXXXXXXXXXXXXXXXXX  XXXX .",
"XX  XXXXXXXXXX  XX  XXXXXXXXXX  XX  XX  XXXXXXXXXXXXXXXXXXXXXX .",
"XX  XXXXXXXXXX  XX .XXXXXXXXXX  XX  XX  XXXXXXXXXXXXXXXXXXXXXX .",
"XX  XXXXXX  XX  XX  . XXXXXXXX  XX  XXXXXXXX  XXXXXXXXXXXXXXXX .",
"XX  XXXXXX  XX  XX  . XXXXXXXX  XX  XXXXXXXX  XXXXXXXXXXXXXXXX .",
"XX  XXXXXXXXXX  XX .XXXXXXXXXX  XX  XXXX  XXXXXXXXXXXXXXXXXXXX .",
"XX  XXXXXXXXXX  XX  XXXXXXXXXX  XX  XXXX  XXXXXXXXXXXXXXXXXXXX .",
"XX  XXXXXXXXXX  XX  XXXXXXXXXX  XX  XXXXXXXXXXXXXXXXXXXXXXXXXX .",
"XX  XXXXXXXXXX  XX .XXXXXXXXXX. XX .XXXXXXXXXXXXXXXXXXXXXXXXXX..",
"XX  XXXX  XXXX  XX  .        .  XX  .                        . .",
"XX  XXXX  XXXX  XX              XX                              ",
"XX  XXXXXXXXXX  XXXXXXXXXXXXXXXXXXXXXXXXXXXXXXXXXXXXXXXXXXXXXXXX",
"XX  XXXXXXXXXX  XXXXXXXXXXXXXXXXXXXXXXXXXXXXXXXXXXXXXXXXXXXXXXXX"
};
