/* XPM */
static char *_fef773652514f9ad9a77813c902815bsFXlR3kNKeA5kXUR[] = {
/* columns rows colors chars-per-pixel */
"64 64 2 1 ",
"  c #888888",
". c white",
/* pixels */
"................................................................",
"...                                                          ...",
"...                                                           ..",
"...                                                           ..",
"...                                                           ..",
"...                                                           ..",
"...                                                           ..",
"...                                                           ..",
"...                                                           ..",
"...                                                           ..",
"...                                                           ..",
"....                                                          ..",
"....                                                          ..",
"....                             .                            ..",
"....                            ..                            ..",
".. .                           . .                            ..",
"....                          .  .                            ..",
"....                         .   .                            ..",
"....                       ..    .                            ..",
"...                       .      .                            ..",
"...                      .       .                            ..",
"...                     .        .                            ..",
"....                   .         .                            ..",
".. .                  .          .                            ..",
".. .                 .            .                          ...",
".. .                .             .                          ...",
"....                              .                          ...",
"....                              .                          ...",
"....                              .                          ...",
"....                              .                          ...",
"....                              .                          ...",
"....                              .                          ...",
"...                               .                          ...",
"...                                .                         ...",
"...                                .                         ...",
"...                                .                         ...",
"...                                .                         ...",
"...                                .                         ...",
"...                                .                         ...",
"...                                .                         ...",
"...                                .                          ..",
"...                               ..                          ..",
"...                               .                           ..",
"...                               .                           ..",
"...                               .                           ..",
"...                               .                           ..",
"...                               .                           ..",
"...                               .   ..........              ..",
"...                              .....                        ..",
"...                       .......                            ...",
"...                                                          ...",
"...                                                          ...",
"...                                                          ...",
"...                                                          ...",
"...                                                          ...",
"..                                                           ...",
"..                                                           ...",
"..                                                           ...",
"..                                                           ...",
"..         ...........                                       ...",
"..       ..................                                  ...",
"..     ......     ..............................................",
"................................................................",
"................................................................"
};
