/* XPM */
static char *_311f6094d664f56eb0187f85085e8cfUEOM5ecRwVmvPScA[] = {
/* columns rows colors chars-per-pixel */
"32 32 2 1 ",
"  c None",
". c #E4E4E4",
/* pixels */
" . .   . ............... .......",
" .     . .          .  . .     .",
" .  .  . .             . .     .",
" ..    . .             . .   . .",
" .     . .  .          . .     .",
" .     . .             . .     .",
" ....... ............... .     .",
"                         .     .",
" ............... ....... . .   .",
" .          .  . .     . .     .",
" .             . .     . .     .",
" .    .        . .   . . ..    .",
" .             . .     . .     .",
" .             . .     . .     .",
" ............... .     . .......",
"                 .     .        ",
"........ ....... .     . .......",
"    .  . .     . .     . .     .",
" .     . . .   . .     . .      ",
"       . .   . . ..    . .    . ",
"       . .     . .     . .  .   ",
"       . .     . .     . .      ",
"........ .  .  . ....... .......",
"         .     .                ",
" ....... . .   . ...............",
" .     . .     . .          .  .",
" .     . .     . . .           .",
" .   . . ..    . .    .        .",
" .     . .     . .  .          .",
" .     . .     . .             .",
" .  .  . ....... ...............",
" .     .                        "
};
