/* XPM */
static char *_18f65b13004473df140414e1949a7a0aiLLjlM1zw9uKK2G[] = {
/* columns rows colors chars-per-pixel */
"45 44 2 1 ",
"  c None",
". c #E4E4E4",
/* pixels */
"                                             ",
"                                             ",
"                                             ",
"                                             ",
"                                             ",
"      . .   . ............... .......        ",
"      .     . .          .  . .     .        ",
"      .  .  . .             . .     .        ",
"      ..    . .             . .   . .        ",
"      .     . .  .          . .     .        ",
"      .     . .             . .     .        ",
"      ....... ............... .     .        ",
"                              .     .        ",
"      ............... ....... . .   .        ",
"      .          .  . .     . .     .        ",
"      .             . .     . .     .        ",
"      .    .        . .   . . ..    .        ",
"      .             . .     . .     .        ",
"      .             . .     . .     .        ",
"      ............... .     . .......        ",
"                      .     .                ",
"     ........ ....... .     . .......        ",
"         .  . .     . .     . .     .        ",
"      .     . . .   . .     . .              ",
"            . .   . . ..    . .    .         ",
"            . .     . .     . .  .           ",
"            . .     . .     . .              ",
"     ........ .  .  . ....... .......        ",
"              .     .                        ",
"      ....... . .   . ...............        ",
"      .     . .     . .          .  .        ",
"      .     . .     . . .           .        ",
"      .   . . ..    . .    .        .        ",
"      .     . .     . .  .          .        ",
"      .     . .     . .             .        ",
"      .  .  . ....... ...............        ",
"      .     .                                ",
"                                             ",
"                                             ",
"                                             ",
"                                             ",
"                                             ",
"                                             ",
"                                             "
};
