/* XPM */
static char *_9dccf102d5944ffc7e3763e555131b0kf8Us7VKXJxqQzQN[] = {
/* columns rows colors chars-per-pixel */
"64 64 2 1 ",
"  c black",
". c #25BB22",
/* pixels */
"................................................................",
"................................................................",
"..                                                            ..",
"..                                                            ..",
"..                                                            ..",
"..                                                            ..",
"..                                                            ..",
"..                                                            ..",
"..              ........................                      ..",
"..              ........................                      ..",
"..              ..                                            ..",
"..              ..                                            ..",
"..              ..                                            ..",
"..              ..                                            ..",
"..              ..                                            ..",
"..              ..                                            ..",
"..              ..                                            ..",
"..              ..                                            ..",
"..              ..                                            ..",
"..              ..                                            ..",
"..              ..                                            ..",
"..              ..                                            ..",
"..              ..                                            ..",
"..              ..                                            ..",
"..              ..                                            ..",
"..              ..                                            ..",
"..              ....................                          ..",
"..              ....................                          ..",
"..              ..                                            ..",
"..              ..                                            ..",
"..              ..                                            ..",
"..              ..                                            ..",
"..              ..                                            ..",
"..              ..                                            ..",
"..              ..                                            ..",
"..              ..                                            ..",
"..              ..                                            ..",
"..              ..                                            ..",
"..              ..                                            ..",
"..              ..                                            ..",
"..              ..                                            ..",
"..              ..                                            ..",
"..              ..                                            ..",
"..              ..                                            ..",
"..              ..              ........                      ..",
"..              ..              ........                      ..",
"..              ..................                            ..",
"..              ..................                            ..",
"..                                                            ..",
"..                                                            ..",
"..                                                            ..",
"..                                                            ..",
"..                                                            ..",
"..                                                            ..",
"..                                                            ..",
"..                                                            ..",
"..                                                            ..",
"..                                                            ..",
"..                                                            ..",
"..                                                            ..",
"..                                                            ..",
"..                                                            ..",
"................................................................",
"................................................................"
};
