/* XPM */
static char *_687352248446[] = {
/* columns rows colors chars-per-pixel */
"64 64 97 2 ",
"   c #020203",
".  c #13111B",
"X  c #34111E",
"o  c #161420",
"O  c #181221",
"+  c #1A1825",
"@  c #1A162A",
"#  c #1E1B2D",
"$  c #1C1A31",
"%  c #201E2D",
"&  c #341D2F",
"*  c #211F32",
"=  c #331F30",
"-  c #242234",
";  c #282637",
":  c #262438",
">  c #29263B",
",  c #2B283D",
"<  c #3B273D",
"1  c #5D1627",
"2  c #541C2F",
"3  c #491A32",
"4  c #601529",
"5  c #6A1629",
"6  c #731D35",
"7  c #42263D",
"8  c #60253E",
"9  c #722139",
"0  c #7B233E",
"q  c #2E2C41",
"w  c #302E43",
"e  c #333245",
"r  c #363649",
"t  c #393A4D",
"y  c #3C3E51",
"u  c #5F2E45",
"i  c #46384B",
"p  c #593D4F",
"a  c #4E3E51",
"s  c #66384D",
"d  c #6F3950",
"f  c #3E4153",
"g  c #404355",
"h  c #4A4253",
"j  c #46495D",
"k  c #5A4D5D",
"l  c #604251",
"z  c #6D4856",
"x  c #4C5067",
"c  c #4C5168",
"v  c #52576F",
"b  c #555B76",
"n  c #785966",
"m  c #9A1731",
"M  c #901B32",
"N  c #9B1E37",
"B  c #9F1E38",
"V  c #BD1D3C",
"C  c #88233F",
"Z  c #A2263F",
"A  c #C61C36",
"S  c #CE1A35",
"D  c #D31A36",
"F  c #D51D3F",
"G  c #DA1B3A",
"H  c #EC1B3D",
"J  c #F11C3E",
"K  c #E1233F",
"L  c #BC2041",
"P  c #D91E40",
"I  c #E91E42",
"U  c #F51C40",
"Y  c #FF1D42",
"T  c #C32848",
"R  c #ED2044",
"E  c #F12645",
"W  c #FF2045",
"Q  c #FF274A",
"!  c #FF2B4C",
"~  c #FF3251",
"^  c #FE3954",
"/  c #9D4957",
"(  c #9D5E66",
")  c #9A5E68",
"_  c #FF485F",
"`  c #FF6C77",
"'  c #FF6E79",
"]  c #FF747D",
"[  c #F5787E",
"{  c #DB8184",
"}  c #E48385",
"|  c #E68688",
" . c #EF898B",
".. c #FF8286",
"X. c #FE8F8F",
"o. c #FF9090",
"O. c None",
/* pixels */
"O.O.O.O.O.O.O.O.O.O.O.O.O.O.O.O.O.O.O.O.O.O.O.O.O.O.O.O.O.O.O.O.O.O.O.O.O.O.O.O.O.O.O.O.O.O.O.O.O.O.O.O.O.O.O.O.O.O.O.O.O.O.O.O.",
"O.O.O.O.O.O.O.O.O.O.O.O.O.O.O.O.O.O.O.O.O.O.O.O.O.O.O.O.O.O.O.O.O.O.O.O.O.O.O.O.O.O.O.O.O.O.O.O.O.O.O.O.O.O.O.O.O.O.O.O.O.O.O.O.",
"O.O.O.O.O.O.O.O.O.O.O.O.O.O.O.O.O.O.O.O.O.O.O.O.O.O.O.O.O.O.O.O.O.O.O.O.O.O.O.O.O.O.O.O.O.O.O.O.O.O.O.O.O.O.O.O.O.O.O.O.O.O.O.O.",
"O.O.O.O.O.O.O.O.O.O.O.O.O.O.O.O.O.O.O.O.O.O.O.O.O.O.t O.O.O.O.O.O.O., O.O.O.O.O.O.O.O.O.O.O.O.O.O.O.O.O.O.O.O.O.O.O.O.O.O.O.O.O.",
"O.O.O.O.O.O.O.O.O.O.O.O.O.O.O.O.O.O.O.O.O.O.O.O.O.w O.O.O.O.O.O.O.O., b O.O.O.O.O.O.O.O.O.O.O.O.O.O.O.O.O.O.O.O.O.O.O.O.O.O.O.O.",
"O.O.O.O.O.O.O.O.O.O.O.O.O.O.O.O.O.O.O.O.O.O.O.O., i O.O.H U U Y O.O.O.y b O.O.O.O.O.O.O.O.O.O.O.O.O.O.O.O.O.O.O.O.O.O.O.O.O.O.O.",
"O.O.O.O.O.O.O.O.O.O.O.O.O.O.O.O.O.O.O.O.O.O.O.O.q f O.S S Y O.O.Y O.O.w x O.O.O.O.O.O.O.O.O.O.O.O.O.O.O.O.O.O.O.O.O.O.O.O.O.O.O.",
"O.O.O.O.O.O.O.O.O.O.O.O.O.O.O.O.O.O.O.O.O.O.O.O f f U U O.O.O.O.O.O.O.w g b O.O.O.O.O.O.O.O.O.O.O.O.O.O.O.O.O.O.O.O.O.O.O.O.O.O.",
"O.O.O.O.O.O.O.O.O.O.O.O.O.O.O.O.O.O.O.O.O.O.O.+ g g S Y O.O.O.O.O.O.O.w g b O.O.O.O.O.O.O.O.O.O.O.O.O.O.O.O.O.O.O.O.O.O.O.O.O.O.",
"O.O.O.O.O.O.O.O.O.O.O.O.O.O.O.O.O.O.O.O.O.O.O.O g f S G O.O.O.O.O.O.O.w g b O.O.O.O.O.O.O.O.O.O.O.O.O.O.O.O.O.O.O.O.O.O.O.O.O.O.",
"O.O.O.O.O.O.O.O.O.O.O.O.O.O.O.O.O.O.O.O.O.O.O.O r g O.D H O.O.O.O.O., f g b O.O.O.O.O.O.O.O.O.O.O.O.O.O.O.O.O.O.O.O.O.O.O.O.O.O.",
"O.O.O.O.O.O.O.O.O.O.O.O.O.O.O.O.O.O.O.O.O.O.O.O , g g O.S Y O.O.Y O.t g g b O.O.O.O.O.O.O.O.O.O.O.O.O.O.O.O.O.O.O.O.O.O.O.O.O.O.",
"O.O.O.O.O.O.O.O.O.O.O.O.O.O.O.O.O.O.O.O.O.O.O.O.% , y O.O.Y Y Y O.q f g v O.O.O.O.O.O.O.O.O.O.O.O.O.O.O.O.O.O.O.O.O.O.O.O.O.O.O.",
"O.O.O.O.O.O.O.O.O.O.O.O.O.O.O.O.O.O.O.O.O.O.O.O.. , , g g O.O.O.> f g j O.O.O.O.O.O.O.O.O.O.O.O.O.O.O.O.O.O.O.O.O.O.O.O.O.O.O.O.",
"O.O.O.O.O.O.O.O.O.O.O.O.O.O.O.O.O.O.O.O.O.O.O.O.O.O : , y r e r g g j O.O.O.O.O.O.O.O.O.O.O.O.O.O.O.O.O.O.O.O.O.O.O.O.O.O.O.O.O.",
"O.O.O.O.O.O.O.O.O.O.O.O.O.O.O.O.O.O.O.O.O.O.O.O.O.O.O , , g g g g j O.O.O.O.O.O.O.O.O.O.O.O.O.O.O.O.O.O.O.O.O.O.O.O.O.O.O.O.O.O.",
"O.O.O.O.O.O.O.O.O.O.O.O.O.O.O.O.O.O.O.O.O.O.O.O.O.O.O.O.% q y g c O.O.O.O.O.O.O.O.O.O.O.O.O.O.O.O.O.O.O.O.O.O.O.O.O.O.O.O.O.O.O.",
"O.O.O.O.O.O.O.O.O.O.O.O.O.O.O.O.O.O.O.O.O.O.O.O.O.  O.O.O , > g g O., , O.O.O.O.O.O.O.O.O.O.O.O.O.O.O.O.O.O.O.O.O.O.O.O.O.O.O.O.",
"O.O.O.O.O.O.O.O.O.O.O.O.O.O.O.O.O.O.O.O.O.O.O.O.O.+ + - - , , w t r r e O.O.O.O.O.O.O.O.O.O.O.O.O.O.O.O.O.O.O.O.O.O.O.O.O.O.O.O.",
"O.O.O.O.O.O.O.O.O.O.O.O.O.O.O.O.O.O.O.O.O.O.O.O.O , , % % % % * , ; f y O.O.O.O.S S O.O.O.O.O.O.O.O.O.O.O.O.O.O.O.O.O.O.O.O.O.O.",
"O.O.O.O.O.O.O.O.O.O.O.O.O.O.O.O.O.O.O.S O.O.O.O.O - % + > 7 / e , : t t O.O.O.O.O.H O.O.O.O.O.O.O.O.O.O.O.O.O.O.O.O.O.O.O.O.O.O.",
"O.O.O.O.O.O.O.O.O.O.O.O.O.O.O.O.O.O.O.Y O.O.O.O.+ - + * , Y ' { w , - g : O.O.O.O.O.O.O.O.O.O.O.O.O.O.O.O.O.O.O.O.O.O.O.O.O.O.O.",
"O.O.O.O.O.O.O.O.O.O.O.O.O.O.O.O.O.O.O.Y O.O.O.O.- . % > 0 ~ o. .k , ; e - O.O.O.O.O.O.O.O.O.O.O.O.O.O.O.O.O.O.O.O.O.O.O.O.O.O.O.",
"O.O.O.O.O.O.O.O.O.O.O.O.O.O.O.O.D O.O.O.O.O.O.% + % % > V ~ o.o.n , , : t , O.O.O.O.O.O.O.O.O.O.O.O.O.O.O.O.O.O.O.O.O.O.O.O.O.O.",
"O.O.O.O.O.O.O.O.O.O.O.O.O.O.O.O.O.O.O.O.O.O.O.- + % ; 7 Y K [ .._ t , : , > O.O.O.O.O.O.O.O.O.O.O.O.O.O.O.O.O.O.O.O.O.O.O.O.O.O.",
"O.O.O.O.O.O.O.O.O.O.O.O.O.O.O.O.O.O.O.O.O.O.O.. O # ; < A D J Y R f q ; % > O.O.O.O.O.O.O.O.O.O.O.O.O.O.O.O.O.O.O.O.O.O.O.O.O.O.",
"O.O.O.O.O.O.O.O.O.O.O.O.O.O.O.O.O.O.O.O.O.O.% O + # O # N S J Y d , ; ; e t O.O.O.O.O.O.O.O.O.O.O.O.O.O.O.O.O.O.O.O.O.O.O.O.O.O.",
"O.O.O.O.O.O.O.O.O.O.O.O.O.O.O.O.O.O.O.O.O.O.% % # . ; ; . S J F - , > , h i O.O.O.O.O.O.O.O.O.O.O.O.O.O.O.O.O.O.O.O.O.O.O.O.O.O.",
"O.O.O.O.O.O.O.O.O.O.O.O.O.O.O.O.O.O.O.O.O.O.% % % - + % > 9 J 8 , > e p A Z , O.O.O.O.O.O.O.O.O.O.O.O.O.O.O.O.O.O.O.O.O.O.O.O.O.",
"O.O.O.O.O.O.O.O.O.O.O.O.O.O.O.O.O.O.O.O.O.O.% % % % ; . % > > , > , f s J T w X.O.O.O.O.O.O.O.O.O.O.O.O.O.O.O.O.O.O.O.O.O.O.O.O.",
"O.O.O.O.O.O.O.O.O.O.O.O.O.O.O.O.O.O.O.O.O.I 4 M % % % % % + ; > e g g d Y u , ( o.O.O.O.O.O.O.O.O.O.O.O.O.O.O.O.O.O.O.O.O.O.O.O.",
"O.O.O.O.O.O.O.O.O.O.O.O.O.O.O.O.O.O.O.O.Y . 5 J 9 = 2 % % > ; - e e g g y q , z o.o.O.O.O.O.O.O.O.O.O.O.O.O.O.O.O.O.O.O.O.O.O.O.",
"O.O.O.O.O.O.O.O.O.O.O.O.O.O.O.O.O.O.O.Y W . # 3 & > % % % % ; - g g e g q t - z X.X.O.O.O.O.O.O.O.O.O.O.O.O.O.O.O.O.O.O.O.O.O.O.",
"O.O.O.O.O.O.O.O.O.O.O.O.O.O.O.O.O.O.Y Y Y . % * # % % % % % > - e f e y f e , , } X.X.O.O.O.O.O.O.O.O.O.O.O.O.O.O.O.O.O.O.O.O.O.",
"O.O.O.O.O.O.O.O.O.O.O.O.O.O.O.O.O.G H Y m . % % - % # % % ; % - y g f g f > , , p X.X.^ O.O.O.O.O.O.O.O.O.O.O.O.O.O.O.O.O.O.O.O.",
"O.O.O.O.O.O.O.O.O.O.O.O.O.O.O.O.O.S D J 1 % % % # - ; # ; : - - y t y g , , : - , ] Q Y O.O.O.O.O.O.O.O.O.O.O.O.O.O.O.O.O.O.O.O.",
"O.O.O.O.O.O.O.O.O.O.O.O.O.O.O.O.O.O.S D . % # % % > ; % ; : ( ; g t r t , , > , * Y Y Y O.O.O.O.O.O.O.O.O.O.O.O.O.O.O.O.O.O.O.O.",
"O.O.O.O.O.O.O.O.O.O.O.O.O.O.O.O.O.O.S S + % % % - % % $ : C ` | h r g e > , , , & u Y O.O.O.O.O.O.O.O.O.O.O.O.O.O.O.O.O.O.O.O.O.",
"O.O.O.O.O.O.O.O.O.O.O.O.O.O.O.O.O.O.O.X O % % % % % % % : Y ' o.l g g - , , , , , < I O.O.O.O.O.O.O.O.O.O.O.O.O.O.O.O.O.O.O.O.O.",
"O.O.O.O.O.O.O.O.O.O.O.O.O.O.O.O.O.O.O.o % % % - % % % * L Y ` o.] g g , , , , , , , P O.O.O.O.O.O.O.O.O.O.O.O.O.O.O.O.O.O.O.O.O.",
"O.O.O.O.O.O.O.O.O.O.O.O.O.O.O.O.O.O.O.# % % ; % % % % $ B D E ! W f ; , , , , , , , O.O.O.O.O.O.O.O.O.O.O.O.O.O.O.O.O.O.O.O.O.O.",
"O.O.O.O.O.O.O.O.O.O.O.O.O.O.O.O.O.O.* % % % - # % % % * , D S Y d t e , > > > , , > , O.O.O.O.O.O.O.O.O.O.O.O.O.O.O.O.O.O.O.O.O.",
"O.O.O.O.O.O.O.O.O.O.O.O.O.O.O.O.O.O.; # # > % % % % % % > 2 S P t f ; , , , , , , , , O.O.O.O.O.O.O.O.O.O.O.O.O.O.O.O.O.O.O.O.O.",
"O.O.O.O.O.O.O.O.O.O.O.O.O.O.O.O.O., - * ; # ; % % % - * ; % 9 t , w e ; , ; > > r , , : O.O.O.O.O.O.O.O.O.O.O.O.O.O.O.O.O.O.O.O.",
"O.O.O.O.O.O.O.O.O.O.O.O.O.O.O.O., % ; , - # ; # % > : $ > - , t - - > > f > > - , , , $ > O.O.O.O.O.O.O.O.O.O.O.O.O.O.O.O.O.O.O.",
"O.O.O.O.O.O.O.O.O.O.O.O.O.O.O., - % ; % - # > % % % * $ > % ; , t , r , , > ; , - : $ $ $ : O.O.O.O.O.O.O.O.O.O.O.O.O.O.O.O.O.O.",
"O.O.O.O.O.O.O.O.O.O.O.O.O.O.> > # % > > % > - # > % # $ , % t t t , , t , r t - , , $ $ $ $ > O.O.O.O.O.O.O.O.O.O.O.O.O.O.O.O.O.",
"O.O.O.O.O.O.O.O.O.O.O.O.O., > % % % # ; - - % % - % $ * , - t t ; , , , , , > , , - $ $ $ $ $ : O.O.O.O.O.O.O.O.O.O.O.O.O.O.O.O.",
"O.O.O.O.O.O.O.O.O.O.O.O., , $ % # > % % % % % % % % $ , , * t t * q q t > > * > , , $ $ $ $ $ $ q O.O.O.O.O.O.O.O.O.O.O.O.O.O.O.",
"O.O.O.O.O.O.O.O.O.O.O., : $ # % - , - % % % % % % % $ $ - @ : ; = * q w q q > > , $ $ $ $ $ $ $ $ : O.O.O.O.O.O.O.O.O.O.O.O.O.O.",
"O.O.O.O.O.O.O.O.O.O., $ $ $ $ , - % % % % % % % $ % # $ $ $ O O q q > w q q t q , $ $ $ $ $ $ $ $ $ , O.O.O.O.O.O.O.O.O.O.O.O.O.",
"O.O.O.O.O.O.O.O.O., * $ $ $ $ - - ; % # - % % # - # $ : $ @ O O @ : > q e w q q $ $ $ $ $ $ $ $ $ $ $ : O.O.O.O.O.O.O.O.O.O.O.O.",
"O.O.O.O.O.O.O.O., $ $ $ $ $ $ > > % % % ; % % % # $ : > $ $ O O O > q * , , , : $ $ $ $ $ $ $ $ $ $ $ $ q O.O.O.O.O.O.O.O.O.O.O.",
"O.O.O.O.O.O.O.O.: $ $ $ $ $ $ , - - % % - - % % - $ $ , $ @ O O O q q w q , , * $ $ $ $ $ $ $ $ $ $ $ * , O.O.O.O.O.O.O.O.O.O.O.",
"O.O.O.O.O.O.O.O.* $ $ # $ $ - * - # % % # % - # # $ : , $ O O . O > > > , , , $ $ $ $ $ $ $ $ $ $ $ # * , O.O.O.O.O.O.O.O.O.O.O.",
"O.O.O.O.O.O.O.O.O.O.O.O.O.O.O.O.# - % % % % - # # $ > $ @ O O O O * > q , , , $ $ $ $ $ $ O.O.O.O.O.O.O.O.O.O.O.O.O.O.O.O.O.O.O.",
"O.O.O.O.O.O.O.O.O.O.O.O.O.O.O.O.O.O.O.% % % % % $ , , $ O O O O O @ q : q > $ $ $ $ O.O.O.O.O.O.O.O.O.O.O.O.O.O.O.O.O.O.O.O.O.O.",
"O.O.O.O.O.O.O.O.O.O.O.O.O.O.O.O.O.O.O.O.O.O.O.% % * , $ @ O . O O @ q q : q O.O.O.O.O.O.O.O.O.O.O.O.O.O.O.O.O.O.O.O.O.O.O.O.O.O.",
"O.O.O.O.O.O.O.O.O.O.O.O.O.O.O.O.O.O.O.O.O.O.O.O.O.O., $ $ O O O O O = O.O.O.O.O.O.O.O.O.O.O.O.O.O.O.O.O.O.O.O.O.O.O.O.O.O.O.O.O.",
"O.O.O.O.O.O.O.O.O.O.O.O.O.O.O.O.O.O.O.O.O.O.O.O.O.O.O.$ * . . O O O O.O.O.O.O.O.O.O.O.O.O.O.O.O.O.O.O.O.O.O.O.O.O.O.O.O.O.O.O.O.",
"O.O.O.O.O.O.O.O.O.O.O.O.O.O.O.O.O.O.O.O.O.O.O.O.O.O.O.O $ O O O O O O.O.O.O.O.O.O.O.O.O.O.O.O.O.O.O.O.O.O.O.O.O.O.O.O.O.O.O.O.O.",
"O.O.O.O.O.O.O.O.O.O.O.O.O.O.O.O.O.O.O.O.O.O.O.O.O.O.O.O.O.O.O.O.O.O.O.O.O.O.O.O.O.O.O.O.O.O.O.O.O.O.O.O.O.O.O.O.O.O.O.O.O.O.O.O.",
"O.O.O.O.O.O.O.O.O.O.O.O.O.O.O.O.O.O.O.O.O.O.O.O.O.O.O.O.O.O.O.O.O.O.O.O.O.O.O.O.O.O.O.O.O.O.O.O.O.O.O.O.O.O.O.O.O.O.O.O.O.O.O.O.",
"O.O.O.O.O.O.O.O.O.O.O.O.O.O.O.O.O.O.O.O.O.O.O.O.O.O.O.O.O.O.O.O.O.O.O.O.O.O.O.O.O.O.O.O.O.O.O.O.O.O.O.O.O.O.O.O.O.O.O.O.O.O.O.O."
};
