/* XPM */
static char *_686910545131[] = {
/* columns rows colors chars-per-pixel */
"64 64 2 1 ",
"  c #E2D455",
". c None",
/* pixels */
"................................................................",
"................................................................",
"................................................................",
"................................................................",
"................................................................",
"................................................................",
"......................          ................................",
"..................... ..........        ........................",
".................... .................    ......................",
"..................  ......................  ....................",
"................. .......................... ...................",
"................ ............................ ..................",
"............... .............................. .................",
".............  ............................... .................",
"............ .................................. ................",
"............ ................................... ...............",
"........... ..................................... ..............",
"........... ...................     ............. ..............",
".......... ................    .....  ............ .............",
".......... ..............  ........... ........... .............",
"......... .............. .......................... ............",
"......... ............  ............................ ...........",
"......... ........... .............................. ...........",
"........ ........... ................................ ..........",
"........ .......... ................................. ..........",
"........ ......... .................................. ..........",
"........ ......... .................................. ..........",
"........ ......... ................................... .........",
"........ ......... ................................... .........",
"........ ......... ................................... .........",
"........ ......... ................................... .........",
"........ ......... ................................... .........",
"........ ......... .................................... ........",
"........ .......... ................................... ........",
"........ ........... .................................. ........",
"........ ........... ................................. .........",
"........ ............  .................. ............ .........",
"......... .............  ............... ............. .........",
"......... ...............               .............. .........",
"......... ............................................ .........",
"......... ........................................... ..........",
".......... .......................................... ..........",
"........... ......................................... ..........",
"........... ........................................ ...........",
"........... ....................................... ............",
"............ ...................................... ............",
"............. .................................... .............",
".............. .................................. ..............",
"............... ................................. ..............",
"................ ..............................  ...............",
"................. ...........................  .................",
"..................  ........................ ...................",
"....................  ....................  ....................",
"......................   ..............   ......................",
".........................    ....      .........................",
".............................    ...............................",
"................................................................",
"................................................................",
"................................................................",
"................................................................",
"................................................................",
"................................................................",
"................................................................",
"................................................................"
};
